<svg width="645" height="305" viewBox="0 0 645 305" fill="none" xmlns="http://www.w3.org/2000/svg">
<g filter="url(#filter0_d_7_24)">
<path d="M571 67H632L638 199L632 287H571L577 180L571 67Z" fill="#D9D9D9"/>
</g>
<path d="M645 19L615 55L565 45L596 0L645 19Z" fill="#D9D9D9"/>
<path d="M645 19L615 55L565 45L596 0L645 19Z" stroke="black"/>
<path d="M387 13L432 30L455 162H466L497 42L552 30L562 181.5L546 294L513 305V155L478 235H438L409 155L416 299L374 294L365 155L387 13Z" fill="#D9D9D9"/>
<path d="M361 65L353 138V294H199L229 154.5L245 13H371L361 65ZM268 144L245 243H324L319 154.5L330 45H274L268 144Z" fill="#D9D9D9"/>
<path d="M361 65L353 138V294H199L229 154.5L245 13H371L361 65ZM268 144L245 243H324L319 154.5L330 45H274L268 144Z" stroke="black"/>
<path d="M211 150L177 294H134L57 281V217L122 231L142 150L160 12L233 4L211 150Z" fill="#D9D9D9"/>
<path d="M211 150L177 294H134L57 281V217L122 231L142 150L160 12L233 4L211 150Z" stroke="black"/>
<path d="M136 66L47 77L42 138H127L110 190L42 182V287L0 276V35L143 8L136 66Z" fill="#D9D9D9"/>
<path d="M136 66L47 77L42 138H127L110 190L42 182V287L0 276V35L143 8L136 66Z" stroke="black"/>
<defs>
<filter id="filter0_d_7_24" x="567" y="67" width="75" height="228" filterUnits="userSpaceOnUse" color-interpolation-filters="sRGB">
<feFlood flood-opacity="0" result="BackgroundImageFix"/>
<feColorMatrix in="SourceAlpha" type="matrix" values="0 0 0 0 0 0 0 0 0 0 0 0 0 0 0 0 0 0 127 0" result="hardAlpha"/>
<feOffset dy="4"/>
<feGaussianBlur stdDeviation="2"/>
<feComposite in2="hardAlpha" operator="out"/>
<feColorMatrix type="matrix" values="0 0 0 0 0 0 0 0 0 0 0 0 0 0 0 0 0 0 0.25 0"/>
<feBlend mode="normal" in2="BackgroundImageFix" result="effect1_dropShadow_7_24"/>
<feBlend mode="normal" in="SourceGraphic" in2="effect1_dropShadow_7_24" result="shape"/>
</filter>
</defs>
</svg>
